<svg width="80" height="52" viewBox="0 0 80 52" fill="none" xmlns="http://www.w3.org/2000/svg">
<path d="M12.35 13L12.8767 14.4233L14.3 14.95L12.8767 15.4767L12.35 16.9L11.8233 15.4767L10.4 14.95L11.8233 14.4233L12.35 13Z" fill="#DEE5F3"/>
<path d="M35.75 23.4L36.2767 24.8233L37.7 25.35L36.2767 25.8767L35.75 27.3L35.2233 25.8767L33.8 25.35L35.2233 24.8233L35.75 23.4Z" fill="#DEE5F3"/>
<path d="M17.55 46.8L18.0767 48.2233L19.5 48.75L18.0767 49.2767L17.55 50.7L17.0233 49.2767L15.6 48.75L17.0233 48.2233L17.55 46.8Z" fill="#DEE5F3"/>
<path d="M24.05 27.3L24.2256 27.7744L24.7 27.95L24.2256 28.1256L24.05 28.6L23.8745 28.1256L23.4 27.95L23.8745 27.7744L24.05 27.3Z" fill="#DEE5F3"/>
<path d="M13.65 36.4L13.8256 36.8744L14.3 37.05L13.8256 37.2256L13.65 37.7L13.4744 37.2256L13 37.05L13.4744 36.8744L13.65 36.4Z" fill="#DEE5F3"/>
<path d="M28.275 49.4L28.5383 50.1117L29.25 50.375L28.5383 50.6383L28.275 51.35L28.0116 50.6383L27.3 50.375L28.0116 50.1117L28.275 49.4Z" fill="#DEE5F3"/>
<g filter="url(#filter0_f_1_126)">
<path d="M11.375 23.4L11.6384 24.1117L12.35 24.375L11.6384 24.6383L11.375 25.35L11.1117 24.6383L10.4 24.375L11.1117 24.1117L11.375 23.4Z" fill="#DEE5F3"/>
</g>
<path d="M5.85001 42.9L6.02557 43.3744L6.50001 43.55L6.02557 43.7256L5.85001 44.2L5.67445 43.7256L5.20001 43.55L5.67445 43.3744L5.85001 42.9Z" fill="#DEE5F3"/>
<path d="M38.35 40.3L38.5256 40.7744L39 40.95L38.5256 41.1256L38.35 41.6L38.1745 41.1256L37.7 40.95L38.1745 40.7744L38.35 40.3Z" fill="#DEE5F3"/>
<path d="M26.65 6.5L26.8256 6.97444L27.3 7.15L26.8256 7.32556L26.65 7.8L26.4744 7.32556L26 7.15L26.4744 6.97444L26.65 6.5Z" fill="#DEE5F3"/>
<path d="M0.65 27.3L0.825559 27.7744L1.3 27.95L0.825559 28.1256L0.65 28.6L0.474441 28.1256L0 27.95L0.474441 27.7744L0.65 27.3Z" fill="#DEE5F3"/>
<path d="M46.15 0L46.6767 1.42332L48.1 1.95L46.6767 2.47668L46.15 3.9L45.6233 2.47668L44.2 1.95L45.6233 1.42332L46.15 0Z" fill="#DEE5F3"/>
<path d="M76.05 13L76.5767 14.4233L78 14.95L76.5767 15.4767L76.05 16.9L75.5233 15.4767L74.1 14.95L75.5233 14.4233L76.05 13Z" fill="#DEE5F3"/>
<path d="M57.85 42.9L58.3767 44.3233L59.8 44.85L58.3767 45.3767L57.85 46.8L57.3233 45.3767L55.9 44.85L57.3233 44.3233L57.85 42.9Z" fill="#DEE5F3"/>
<path d="M64.35 16.9L64.5256 17.3744L65 17.55L64.5256 17.7256L64.35 18.2L64.1745 17.7256L63.7 17.55L64.1745 17.3744L64.35 16.9Z" fill="#DEE5F3"/>
<path d="M59.15 31.2L59.3256 31.6744L59.8 31.85L59.3256 32.0256L59.15 32.5L58.9744 32.0256L58.5 31.85L58.9744 31.6744L59.15 31.2Z" fill="#DEE5F3"/>
<path d="M65.975 24.7L66.2383 25.4117L66.95 25.675L66.2383 25.9383L65.975 26.65L65.7117 25.9383L65 25.675L65.7117 25.4117L65.975 24.7Z" fill="#DEE5F3"/>
<g filter="url(#filter1_f_1_126)">
<path d="M51.675 13L51.9384 13.7117L52.65 13.975L51.9384 14.2383L51.675 14.95L51.4117 14.2383L50.7 13.975L51.4117 13.7117L51.675 13Z" fill="#DEE5F3"/>
</g>
<g filter="url(#filter2_f_1_126)">
<path d="M46.15 31.2L46.3256 31.6744L46.8 31.85L46.3256 32.0256L46.15 32.5L45.9744 32.0256L45.5 31.85L45.9744 31.6744L46.15 31.2Z" fill="#DEE5F3"/>
</g>
<path d="M78.65 29.9L78.8256 30.3744L79.3 30.55L78.8256 30.7256L78.65 31.2L78.4744 30.7256L78 30.55L78.4744 30.3744L78.65 29.9Z" fill="#DEE5F3"/>
<path d="M72.15 3.89999L72.3256 4.37443L72.8 4.54999L72.3256 4.72555L72.15 5.19999L71.9744 4.72555L71.5 4.54999L71.9744 4.37443L72.15 3.89999Z" fill="#DEE5F3"/>
<path d="M40.95 16.9L41.1255 17.3744L41.6 17.55L41.1255 17.7256L40.95 18.2L40.7744 17.7256L40.3 17.55L40.7744 17.3744L40.95 16.9Z" fill="#DEE5F3"/>
<defs>
<filter id="filter0_f_1_126" x="10.14" y="23.14" width="2.47001" height="2.47" filterUnits="userSpaceOnUse" color-interpolation-filters="sRGB">
<feFlood flood-opacity="0" result="BackgroundImageFix"/>
<feBlend mode="normal" in="SourceGraphic" in2="BackgroundImageFix" result="shape"/>
<feGaussianBlur stdDeviation="0.13" result="effect1_foregroundBlur_1_126"/>
</filter>
<filter id="filter1_f_1_126" x="50.44" y="12.74" width="2.47001" height="2.47" filterUnits="userSpaceOnUse" color-interpolation-filters="sRGB">
<feFlood flood-opacity="0" result="BackgroundImageFix"/>
<feBlend mode="normal" in="SourceGraphic" in2="BackgroundImageFix" result="shape"/>
<feGaussianBlur stdDeviation="0.13" result="effect1_foregroundBlur_1_126"/>
</filter>
<filter id="filter2_f_1_126" x="45.24" y="30.94" width="1.81999" height="1.82" filterUnits="userSpaceOnUse" color-interpolation-filters="sRGB">
<feFlood flood-opacity="0" result="BackgroundImageFix"/>
<feBlend mode="normal" in="SourceGraphic" in2="BackgroundImageFix" result="shape"/>
<feGaussianBlur stdDeviation="0.13" result="effect1_foregroundBlur_1_126"/>
</filter>
</defs>
</svg>
